<svg width="48" height="48" viewBox="0 0 48 48" fill="none" xmlns="http://www.w3.org/2000/svg">
<path opacity="0.4" d="M34 24C34 29.5228 29.5228 34 24 34C18.4772 34 14 29.5228 14 24C14 18.4772 18.4772 14 24 14C29.5228 14 34 18.4772 34 24Z" fill="#FEDF6F"/>
<path d="M34 24C34 29.5228 29.5228 34 24 34C18.4772 34 14 29.5228 14 24C14 18.4772 18.4772 14 24 14C29.5228 14 34 18.4772 34 24Z" stroke="#FEDF6F" stroke-width="3"/>
<path d="M23.988 43.9999C24.743 43.3337 25.8004 41.601 23.9904 39.9999M24.0096 7.99995C23.2554 7.3329 22.2001 5.59886 24.012 3.99995M8.99099 38.9855C10.054 39.0519 12.1407 38.547 11.9844 35.9958M37.0151 13.0078C36.9499 11.9447 37.4574 9.85863 40.0084 10.018M37.9856 39.0084C38.052 37.9444 37.5466 35.8555 34.9928 36.012M12.0066 12.9875C10.9436 13.0491 8.85746 12.5692 9.01671 10.1573M4 23.9879C4.66615 24.7429 6.39891 25.8004 8 23.9903M39.9994 25.0096C40.6665 24.2554 42.4005 23.2 43.9994 25.012" stroke="#FEDF6F" stroke-width="3" stroke-linecap="round"/>
</svg>
